<svg width="24" height="24" viewBox="0 0 24 24" fill="none" xmlns="http://www.w3.org/2000/svg">
<path d="M12 20.0995L16.9497 15.1497C19.6834 12.4161 19.6834 7.98393 16.9497 5.25026C14.2161 2.51659 9.78392 2.51659 7.05025 5.25026C4.31658 7.98393 4.31658 12.4161 7.05025 15.1497L12 20.0995ZM12 22.9279L5.63604 16.564C2.12132 13.0492 2.12132 7.35077 5.63604 3.83605C9.15076 0.321332 14.8492 0.321332 18.364 3.83605C21.8787 7.35077 21.8787 13.0492 18.364 16.564L12 22.9279ZM12 12.2C13.1046 12.2 14 11.3046 14 10.2C14 9.09544 13.1046 8.20001 12 8.20001C10.8954 8.20001 10 9.09544 10 10.2C10 11.3046 10.8954 12.2 12 12.2ZM12 14.2C9.79086 14.2 8 12.4091 8 10.2C8 7.99087 9.79086 6.20001 12 6.20001C14.2091 6.20001 16 7.99087 16 10.2C16 12.4091 14.2091 14.2 12 14.2Z" fill="white"/>
</svg>
