<svg width="160" height="24" viewBox="0 0 160 24" fill="none" xmlns="http://www.w3.org/2000/svg">
<path d="M148.522 16.6466L148.001 16.3282L147.48 16.6466L143.654 18.9835L144.694 14.6226L144.835 14.0285L144.372 13.6311L140.967 10.7145L145.436 10.3562L146.045 10.3074L146.279 9.74345L148.001 5.60397L149.722 9.74345L149.957 10.3074L150.566 10.3562L155.035 10.7145L151.63 13.6311L151.166 14.0285L151.308 14.6226L152.348 18.9836L148.522 16.6466Z" stroke="white" stroke-width="2"/>
<path d="M114.522 16.6466L114.001 16.3282L113.48 16.6466L109.654 18.9835L110.694 14.6226L110.835 14.0285L110.372 13.6311L106.967 10.7145L111.436 10.3562L112.045 10.3074L112.279 9.74345L114.001 5.60397L115.722 9.74345L115.957 10.3074L116.566 10.3562L121.035 10.7145L117.63 13.6311L117.166 14.0285L117.308 14.6226L118.348 18.9836L114.522 16.6466Z" stroke="white" stroke-width="2"/>
<path d="M80.5221 16.6466L80.0008 16.3282L79.4795 16.6466L75.6535 18.9835L76.6938 14.6226L76.8355 14.0285L76.3716 13.6311L72.9667 10.7145L77.4357 10.3562L78.0445 10.3074L78.2791 9.74345L80.0008 5.60397L81.7225 9.74345L81.957 10.3074L82.5659 10.3562L87.0349 10.7145L83.63 13.6311L83.1662 14.0285L83.3079 14.6226L84.3481 18.9836L80.5221 16.6466Z" stroke="white" stroke-width="2"/>
<path d="M46.5221 16.6466L46.0008 16.3282L45.4795 16.6466L41.6535 18.9835L42.6938 14.6226L42.8355 14.0285L42.3716 13.6311L38.9667 10.7145L43.4357 10.3562L44.0445 10.3074L44.2791 9.74345L46.0008 5.60397L47.7225 9.74345L47.957 10.3074L48.5659 10.3562L53.0349 10.7145L49.63 13.6311L49.1662 14.0285L49.3079 14.6226L50.3481 18.9836L46.5221 16.6466Z" stroke="white" stroke-width="2"/>
<path d="M12.5221 16.6466L12.0008 16.3282L11.4795 16.6466L7.65353 18.9835L8.69376 14.6226L8.83548 14.0285L8.37161 13.6311L4.96674 10.7145L9.43569 10.3562L10.0445 10.3074L10.2791 9.74345L12.0008 5.60397L13.7225 9.74345L13.957 10.3074L14.5659 10.3562L19.0349 10.7145L15.63 13.6311L15.1662 14.0285L15.3079 14.6226L16.3481 18.9836L12.5221 16.6466Z" stroke="white" stroke-width="2"/>
</svg>
