<svg width="160" height="24" viewBox="0 0 160 24" fill="none" xmlns="http://www.w3.org/2000/svg">
<path d="M148.001 17.5L142.123 21.0902L143.721 14.3906L138.49 9.90983L145.356 9.35942L148.001 3L150.646 9.35942L157.511 9.90983L152.281 14.3906L153.879 21.0902L148.001 17.5Z" fill="white"/>
<path d="M114.001 17.5L108.123 21.0902L109.721 14.3906L104.49 9.90983L111.356 9.35942L114.001 3L116.646 9.35942L123.511 9.90983L118.281 14.3906L119.879 21.0902L114.001 17.5Z" fill="white"/>
<path d="M80.0008 17.5L74.123 21.0902L75.7211 14.3906L70.4902 9.90983L77.3558 9.35942L80.0008 3L82.6458 9.35942L89.5114 9.90983L84.2806 14.3906L85.8787 21.0902L80.0008 17.5Z" fill="white"/>
<path d="M46.0008 17.5L40.123 21.0902L41.7211 14.3906L36.4902 9.90983L43.3558 9.35942L46.0008 3L48.6458 9.35942L55.5114 9.90983L50.2806 14.3906L51.8787 21.0902L46.0008 17.5Z" fill="white"/>
<path d="M12.0008 17.5L6.12295 21.0902L7.72105 14.3906L2.49023 9.90983L9.35577 9.35942L12.0008 3L14.6458 9.35942L21.5114 9.90983L16.2806 14.3906L17.8787 21.0902L12.0008 17.5Z" fill="white"/>
</svg>
